<svg width="187" height="27" viewBox="0 0 187 27" fill="none" xmlns="http://www.w3.org/2000/svg">
<path d="M59.1373 2.11395L60.7001 7.87163H60.7336L61.8873 2.11395H63.8592L61.847 10.8946H59.922L58.4464 5.47874H58.4061L56.9439 10.8946H55.0256L53 2.11395H54.9787L56.1323 7.87163H56.1726L57.722 2.11395H59.1373Z" fill="#2B3940"/>
<path d="M69.5203 10.8946L69.0172 9.18538H66.2471L65.7507 10.8946H63.6983L66.5355 2.11395H68.7288L71.5727 10.8946H69.5203ZM67.6154 4.47332L66.7032 7.61693H68.5678L67.6489 4.47332H67.6154Z" fill="#2B3940"/>
<path d="M75.6039 9.4937V9.50041C76.0197 9.50041 76.3327 9.41997 76.5429 9.25911C76.7531 9.09377 76.8581 8.86364 76.8581 8.56872C76.8581 8.2738 76.7598 8.04367 76.563 7.87833C76.3707 7.70853 75.9996 7.52309 75.4496 7.322C74.2602 6.95112 73.4173 6.56459 72.9209 6.16242C72.4246 5.75579 72.1764 5.18829 72.1764 4.45992C72.1764 3.72708 72.4916 3.135 73.1221 2.68368C73.7526 2.22789 74.562 2 75.5502 2C76.5429 2 77.3478 2.25024 77.9649 2.75071C78.5819 3.25118 78.8793 3.89465 78.8569 4.68111L78.8435 4.72133H76.8649C76.8649 4.35938 76.7441 4.07116 76.5027 3.85667C76.2657 3.64218 75.9415 3.53494 75.5301 3.53494C75.1232 3.53494 74.8012 3.62431 74.5642 3.80305C74.3272 3.98179 74.2087 4.20074 74.2087 4.45992C74.2087 4.71909 74.3205 4.92688 74.5441 5.08328C74.7677 5.23968 75.2148 5.43852 75.8856 5.67982C76.9319 5.98815 77.6966 6.36127 78.1795 6.79919C78.6624 7.2371 78.9039 7.83365 78.9039 8.58883C78.9039 9.34401 78.6043 9.94055 78.0051 10.3785C77.4104 10.8164 76.61 11.0353 75.6039 11.0353C74.9242 11.0353 74.3093 10.9281 73.7593 10.7136C73.2093 10.4947 72.7666 10.1617 72.4313 9.7149C72.1004 9.26358 71.9416 8.73182 71.955 8.11963L71.9618 8.08612H73.9538C73.9538 8.58213 74.0858 8.94184 74.3496 9.16527C74.6179 9.38422 75.036 9.4937 75.6039 9.4937Z" fill="#2B3940"/>
<path d="M87.3351 2.11395V10.8946H85.3027V7.36222H82.0497V10.8946H80.0039V2.11395H82.0497V5.79377H85.3027V2.11395H87.3351Z" fill="#2B3940"/>
<path d="M90.8967 2.11395V10.8946H88.8576V2.11395H90.8967Z" fill="#2B3940"/>
<path d="M99.7437 2.11395V10.8946H97.7114L94.4918 5.29777L94.4583 5.31117V10.8946H92.4126V2.11395H94.4583L97.6711 7.71076L97.7114 7.69736V2.11395H99.7437Z" fill="#2B3940"/>
<path d="M108.074 6.39702V9.69479C107.739 10.088 107.283 10.4097 106.706 10.66C106.129 10.9102 105.441 11.0353 104.64 11.0353C103.549 11.0353 102.664 10.7024 101.984 10.0366C101.309 9.37082 100.971 8.50393 100.971 7.43595V5.59939C100.971 4.53588 101.3 3.67123 101.957 3.00542C102.619 2.33514 103.486 2 104.56 2C105.637 2 106.462 2.25247 107.035 2.75741C107.611 3.26236 107.94 3.98402 108.021 4.92241L108.014 4.96263H106.096C106.029 4.4845 105.876 4.13372 105.64 3.91029C105.407 3.6824 105.054 3.56845 104.58 3.56845C104.11 3.56845 103.73 3.75613 103.439 4.13148C103.153 4.50237 103.01 4.9872 103.01 5.58599V7.43595C103.01 8.05708 103.153 8.55085 103.439 8.91726C103.726 9.28368 104.126 9.46689 104.64 9.46689C105.293 9.46689 105.756 9.35518 106.029 9.13175V7.74428H104.64V6.39702H108.074Z" fill="#2B3940"/>
<path d="M115.446 2.11395V3.6824H113.125V10.8946H111.079V3.6824H108.779V2.11395H115.446Z" fill="#2B3940"/>
<path d="M121.335 7.3086V5.71334C121.335 5.06987 121.185 4.55152 120.885 4.15829C120.586 3.76506 120.168 3.56845 119.631 3.56845C119.095 3.56845 118.676 3.76506 118.377 4.15829C118.082 4.54705 117.934 5.0654 117.934 5.71334V7.3086C117.934 7.961 118.084 8.48382 118.384 8.87705C118.688 9.27028 119.106 9.46689 119.638 9.46689C120.174 9.46689 120.59 9.27028 120.885 8.87705C121.185 8.48382 121.335 7.961 121.335 7.3086ZM123.367 5.72674V7.3086C123.367 8.39892 123.023 9.29262 122.334 9.98971C121.65 10.6868 120.753 11.0353 119.645 11.0353C118.536 11.0353 117.635 10.6868 116.941 9.98971C116.248 9.29262 115.902 8.39892 115.902 7.3086V5.72674C115.902 5.01178 116.056 4.37278 116.365 3.80975C116.678 3.24225 117.118 2.79986 117.686 2.4826C118.258 2.16087 118.909 2 119.638 2C120.742 2 121.639 2.34854 122.327 3.04563C123.021 3.74272 123.367 4.63643 123.367 5.72674Z" fill="#2B3940"/>
<path d="M131.885 2.11395V10.8946H129.853L126.634 5.29777L126.6 5.31117V10.8946H124.554V2.11395H126.6L129.813 7.71076L129.853 7.69736V2.11395H131.885Z" fill="#2B3940"/>
<path d="M140.169 9.4937V9.50041C140.585 9.50041 140.898 9.41997 141.108 9.25911C141.318 9.09377 141.423 8.86364 141.423 8.56872C141.423 8.2738 141.325 8.04367 141.128 7.87833C140.936 7.70853 140.565 7.52309 140.015 7.322C138.825 6.95112 137.982 6.56459 137.486 6.16242C136.99 5.75579 136.742 5.18829 136.742 4.45992C136.742 3.72708 137.057 3.135 137.687 2.68368C138.318 2.22789 139.127 2 140.115 2C141.108 2 141.913 2.25024 142.53 2.75071C143.147 3.25118 143.445 3.89465 143.422 4.68111L143.409 4.72133H141.43C141.43 4.35938 141.309 4.07116 141.068 3.85667C140.831 3.64218 140.507 3.53494 140.095 3.53494C139.688 3.53494 139.366 3.62431 139.129 3.80305C138.892 3.98179 138.774 4.20074 138.774 4.45992C138.774 4.71909 138.886 4.92688 139.109 5.08328C139.333 5.23968 139.78 5.43852 140.451 5.67982C141.497 5.98815 142.262 6.36127 142.745 6.79919C143.228 7.2371 143.469 7.83365 143.469 8.58883C143.469 9.34401 143.17 9.94055 142.57 10.3785C141.976 10.8164 141.175 11.0353 140.169 11.0353C139.489 11.0353 138.875 10.9281 138.325 10.7136C137.775 10.4947 137.332 10.1617 136.996 9.7149C136.666 9.26358 136.507 8.73182 136.52 8.11963L136.527 8.08612H138.519C138.519 8.58213 138.651 8.94184 138.915 9.16527C139.183 9.38422 139.601 9.4937 140.169 9.4937Z" fill="#2B3940"/>
<path d="M150.7 2.11395V3.6824H148.379V10.8946H146.333V3.6824H144.033V2.11395H150.7Z" fill="#2B3940"/>
<path d="M156.045 10.8946L155.542 9.18538H152.772L152.276 10.8946H150.223L153.061 2.11395H155.254L158.098 10.8946H156.045ZM154.141 4.47332L153.228 7.61693H155.093L154.174 4.47332H154.141Z" fill="#2B3940"/>
<path d="M164.852 2.11395V3.6824H162.531V10.8946H160.486V3.6824H158.185V2.11395H164.852Z" fill="#2B3940"/>
<path d="M171.177 5.56588V7.13433H167.73V9.32613H171.788V10.8946H165.684V2.11395H171.801V3.6824H167.73V5.56588H171.177Z" fill="#2B3940"/>
<path d="M60.4787 21.8296C60.4385 22.8663 60.1322 23.655 59.5598 24.1957C58.9919 24.7319 58.1647 25 57.0781 25C55.9915 25 55.1084 24.6671 54.4287 24.0013C53.7535 23.3355 53.4159 22.4686 53.4159 21.4006V19.564C53.4159 18.4961 53.7423 17.6292 54.3951 16.9634C55.048 16.2976 55.911 15.9647 56.9842 15.9647C58.0618 15.9647 58.8958 16.2395 59.486 16.7891C60.0808 17.3387 60.4161 18.1364 60.4921 19.182L60.4787 19.2222H58.4933C58.4665 18.6324 58.3368 18.2034 58.1043 17.9353C57.8718 17.6672 57.4895 17.5331 56.9574 17.5331C56.4968 17.5331 56.1323 17.7163 55.8641 18.0827C55.5958 18.4492 55.4616 18.9385 55.4616 19.5506V21.4006C55.4616 22.0173 55.6069 22.511 55.8976 22.8819C56.1927 23.2483 56.5862 23.4316 57.0781 23.4316C57.5744 23.4316 57.9255 23.3042 58.1311 23.0495C58.3413 22.7948 58.4598 22.3747 58.4866 21.7894H60.4653L60.4787 21.8296Z" fill="#2B3940"/>
<path d="M66.8038 21.2733V19.678C66.8038 19.0345 66.654 18.5162 66.3544 18.123C66.0548 17.7297 65.6367 17.5331 65.1001 17.5331C64.5635 17.5331 64.1454 17.7297 63.8458 18.123C63.5507 18.5117 63.4031 19.0301 63.4031 19.678V21.2733C63.4031 21.9257 63.5529 22.4485 63.8525 22.8417C64.1566 23.2349 64.5747 23.4316 65.1068 23.4316C65.6434 23.4316 66.0593 23.2349 66.3544 22.8417C66.654 22.4485 66.8038 21.9257 66.8038 21.2733ZM68.8361 19.6914V21.2733C68.8361 22.3636 68.4918 23.2573 67.8032 23.9544C67.119 24.6515 66.2225 25 65.1135 25C64.0046 25 63.1035 24.6515 62.4105 23.9544C61.7174 23.2573 61.3708 22.3636 61.3708 21.2733V19.6914C61.3708 18.9764 61.5251 18.3374 61.8336 17.7744C62.1466 17.2069 62.5871 16.7645 63.155 16.4473C63.7273 16.1255 64.3779 15.9647 65.1068 15.9647C66.2113 15.9647 67.1079 16.3132 67.7965 17.0103C68.4896 17.7074 68.8361 18.6011 68.8361 19.6914Z" fill="#2B3940"/>
<path d="M72.0691 24.8458H70.0233V16.0652H73.4038C74.4278 16.0652 75.235 16.2998 75.8252 16.769C76.4199 17.2382 76.7173 17.8817 76.7173 18.6994C76.7173 19.5976 76.2433 20.2544 75.2953 20.67C75.823 20.8219 76.2075 21.0722 76.449 21.4207C76.6905 21.7693 76.8112 22.2183 76.8112 22.768V23.3176C76.8112 23.5947 76.8492 23.8717 76.9252 24.1487C77.0012 24.4258 77.1175 24.6224 77.274 24.7386V24.8592H75.1679C74.9085 24.6537 74.7789 24.1398 74.7789 23.3176V22.7814C74.7789 22.3613 74.6671 22.0418 74.4435 21.8229C74.2244 21.6039 73.9002 21.4944 73.4709 21.4944L72.0691 21.481V24.8458ZM72.0691 17.6471V19.926H73.4106C73.8219 19.926 74.1349 19.8344 74.3496 19.6512C74.5687 19.4635 74.6782 19.1909 74.6782 18.8334C74.6782 18.4715 74.5665 18.1833 74.3429 17.9688C74.1193 17.7543 73.8063 17.6471 73.4038 17.6471H72.0691Z" fill="#2B3940"/>
<path d="M83.4247 21.2733V19.678C83.4247 19.0345 83.2749 18.5162 82.9753 18.123C82.6757 17.7297 82.2576 17.5331 81.721 17.5331C81.1844 17.5331 80.7663 17.7297 80.4667 18.123C80.1716 18.5117 80.024 19.0301 80.024 19.678V21.2733C80.024 21.9257 80.1738 22.4485 80.4734 22.8417C80.7775 23.2349 81.1956 23.4316 81.7277 23.4316C82.2643 23.4316 82.6801 23.2349 82.9753 22.8417C83.2749 22.4485 83.4247 21.9257 83.4247 21.2733ZM85.457 19.6914V21.2733C85.457 22.3636 85.1127 23.2573 84.4241 23.9544C83.7399 24.6515 82.8434 25 81.7344 25C80.6255 25 79.7244 24.6515 79.0313 23.9544C78.3382 23.2573 77.9917 22.3636 77.9917 21.2733V19.6914C77.9917 18.9764 78.146 18.3374 78.4545 17.7744C78.7675 17.2069 79.208 16.7645 79.7759 16.4473C80.3482 16.1255 80.9988 15.9647 81.7277 15.9647C82.8322 15.9647 83.7287 16.3132 84.4174 17.0103C85.1105 17.7074 85.457 18.6011 85.457 19.6914Z" fill="#2B3940"/>
<path d="M93.9754 16.0786V24.8592H91.943L88.7235 19.2624L88.69 19.2758V24.8592H86.6442V16.0786H88.69L91.9028 21.6754L91.943 21.662V16.0786H93.9754Z" fill="#2B3940"/>
<path d="M100.535 24.8592L100.032 23.15H97.262L96.7656 24.8592H94.7132L97.5504 16.0786H99.7437L102.588 24.8592H100.535ZM98.6303 18.438L97.7181 21.5816H99.5827L98.6638 18.438H98.6303Z" fill="#2B3940"/>
<path d="M104.647 16.0786L106.364 22.4731L106.424 22.7948H106.465L106.525 22.4999L108.269 16.0786H110.402L107.558 24.8592H105.351L102.514 16.0786H104.647Z" fill="#2B3940"/>
<path d="M113.272 16.0786V24.8592H111.233V16.0786H113.272Z" fill="#2B3940"/>
<path d="M116.834 24.8458H114.788V16.0652H118.169C119.193 16.0652 120 16.2998 120.59 16.769C121.185 17.2382 121.482 17.8817 121.482 18.6994C121.482 19.5976 121.008 20.2544 120.06 20.67C120.588 20.8219 120.973 21.0722 121.214 21.4207C121.455 21.7693 121.576 22.2183 121.576 22.768V23.3176C121.576 23.5947 121.614 23.8717 121.69 24.1487C121.766 24.4258 121.883 24.6224 122.039 24.7386V24.8592H119.933C119.674 24.6537 119.544 24.1398 119.544 23.3176V22.7814C119.544 22.3613 119.432 22.0418 119.209 21.8229C118.989 21.6039 118.665 21.4944 118.236 21.4944L116.834 21.481V24.8458ZM116.834 17.6471V19.926H118.176C118.587 19.926 118.9 19.8344 119.115 19.6512C119.334 19.4635 119.443 19.1909 119.443 18.8334C119.443 18.4715 119.331 18.1833 119.108 17.9688C118.884 17.7543 118.571 17.6471 118.169 17.6471H116.834Z" fill="#2B3940"/>
<path d="M128.123 16.092H130.168V21.843C130.168 22.835 129.84 23.6103 129.182 24.1689C128.53 24.723 127.649 25 126.54 25C125.435 25 124.554 24.723 123.897 24.1689C123.24 23.6103 122.911 22.835 122.911 21.843V16.092H124.957V21.843C124.957 22.3747 125.093 22.7724 125.366 23.0361C125.643 23.2997 126.039 23.4316 126.553 23.4316C127.599 23.4316 128.123 22.902 128.123 21.843V16.092Z" fill="#2B3940"/>
<path d="M134.924 23.4584V23.4651C135.34 23.4651 135.653 23.3846 135.863 23.2238C136.073 23.0584 136.178 22.8283 136.178 22.5334C136.178 22.2385 136.08 22.0083 135.883 21.843C135.691 21.6732 135.32 21.4877 134.77 21.2867C133.58 20.9158 132.737 20.5292 132.241 20.1271C131.745 19.7204 131.496 19.1529 131.496 18.4246C131.496 17.6917 131.812 17.0997 132.442 16.6483C133.073 16.1926 133.882 15.9647 134.87 15.9647C135.863 15.9647 136.668 16.2149 137.285 16.7154C137.902 17.2158 138.199 17.8593 138.177 18.6458L138.164 18.686H136.185C136.185 18.324 136.064 18.0358 135.823 17.8213C135.586 17.6068 135.262 17.4996 134.85 17.4996C134.443 17.4996 134.121 17.589 133.884 17.7677C133.647 17.9464 133.529 18.1654 133.529 18.4246C133.529 18.6838 133.641 18.8915 133.864 19.0479C134.088 19.2043 134.535 19.4032 135.206 19.6445C136.252 19.9528 137.017 20.3259 137.5 20.7638C137.982 21.2018 138.224 21.7983 138.224 22.5535C138.224 23.3087 137.924 23.9052 137.325 24.3431C136.73 24.781 135.93 25 134.924 25C134.244 25 133.629 24.8928 133.079 24.6783C132.529 24.4593 132.087 24.1264 131.751 23.6796C131.42 23.2282 131.262 22.6965 131.275 22.0843L131.282 22.0508H133.274C133.274 22.5468 133.406 22.9065 133.67 23.1299C133.938 23.3489 134.356 23.4584 134.924 23.4584Z" fill="#2B3940"/>
<path d="M146.219 23.4584V23.4651C146.635 23.4651 146.948 23.3846 147.158 23.2238C147.368 23.0584 147.473 22.8283 147.473 22.5334C147.473 22.2385 147.375 22.0083 147.178 21.843C146.986 21.6732 146.615 21.4877 146.065 21.2867C144.875 20.9158 144.033 20.5292 143.536 20.1271C143.04 19.7204 142.792 19.1529 142.792 18.4246C142.792 17.6917 143.107 17.0997 143.737 16.6483C144.368 16.1926 145.177 15.9647 146.165 15.9647C147.158 15.9647 147.963 16.2149 148.58 16.7154C149.197 17.2158 149.495 17.8593 149.472 18.6458L149.459 18.686H147.48C147.48 18.324 147.359 18.0358 147.118 17.8213C146.881 17.6068 146.557 17.4996 146.145 17.4996C145.738 17.4996 145.416 17.589 145.179 17.7677C144.943 17.9464 144.824 18.1654 144.824 18.4246C144.824 18.6838 144.936 18.8915 145.159 19.0479C145.383 19.2043 145.83 19.4032 146.501 19.6445C147.547 19.9528 148.312 20.3259 148.795 20.7638C149.278 21.2018 149.519 21.7983 149.519 22.5535C149.519 23.3087 149.22 23.9052 148.62 24.3431C148.026 24.781 147.225 25 146.219 25C145.539 25 144.925 24.8928 144.375 24.6783C143.825 24.4593 143.382 24.1264 143.047 23.6796C142.716 23.2282 142.557 22.6965 142.57 22.0843L142.577 22.0508H144.569C144.569 22.5468 144.701 22.9065 144.965 23.1299C145.233 23.3489 145.651 23.4584 146.219 23.4584Z" fill="#2B3940"/>
<path d="M156.75 16.0786V17.6471H154.429V24.8592H152.383V17.6471H150.083V16.0786H156.75Z" fill="#2B3940"/>
<path d="M162.096 24.8592L161.592 23.15H158.822L158.326 24.8592H156.273L159.111 16.0786H161.304L164.148 24.8592H162.096ZM160.191 18.438L159.278 21.5816H161.143L160.224 18.438H160.191Z" fill="#2B3940"/>
<path d="M170.902 16.0786V17.6471H168.582V24.8592H166.536V17.6471H164.235V16.0786H170.902Z" fill="#2B3940"/>
<path d="M176.899 16.092H178.944V21.843C178.944 22.835 178.616 23.6103 177.958 24.1689C177.306 24.723 176.425 25 175.316 25C174.211 25 173.33 24.723 172.673 24.1689C172.016 23.6103 171.687 22.835 171.687 21.843V16.092H173.733V21.843C173.733 22.3747 173.869 22.7724 174.142 23.0361C174.419 23.2997 174.815 23.4316 175.329 23.4316C176.376 23.4316 176.899 22.902 176.899 21.843V16.092Z" fill="#2B3940"/>
<path d="M183.7 23.4584V23.4651C184.116 23.4651 184.429 23.3846 184.639 23.2238C184.849 23.0584 184.954 22.8283 184.954 22.5334C184.954 22.2385 184.856 22.0083 184.659 21.843C184.467 21.6732 184.096 21.4877 183.546 21.2867C182.356 20.9158 181.513 20.5292 181.017 20.1271C180.521 19.7204 180.272 19.1529 180.272 18.4246C180.272 17.6917 180.588 17.0997 181.218 16.6483C181.849 16.1926 182.658 15.9647 183.646 15.9647C184.639 15.9647 185.444 16.2149 186.061 16.7154C186.678 17.2158 186.975 17.8593 186.953 18.6458L186.94 18.686H184.961C184.961 18.324 184.84 18.0358 184.599 17.8213C184.362 17.6068 184.038 17.4996 183.626 17.4996C183.219 17.4996 182.897 17.589 182.66 17.7677C182.423 17.9464 182.305 18.1654 182.305 18.4246C182.305 18.6838 182.417 18.8915 182.64 19.0479C182.864 19.2043 183.311 19.4032 183.982 19.6445C185.028 19.9528 185.793 20.3259 186.276 20.7638C186.759 21.2018 187 21.7983 187 22.5535C187 23.3087 186.7 23.9052 186.101 24.3431C185.506 24.781 184.706 25 183.7 25C183.02 25 182.405 24.8928 181.855 24.6783C181.305 24.4593 180.863 24.1264 180.527 23.6796C180.196 23.2282 180.038 22.6965 180.051 22.0843L180.058 22.0508H182.05C182.05 22.5468 182.182 22.9065 182.446 23.1299C182.714 23.3489 183.132 23.4584 183.7 23.4584Z" fill="#2B3940"/>
<path d="M8.82885 24.519C9.17208 24.7242 9.46866 25.6044 9.19569 25.6755C9.19569 25.6755 9.55648 25.9498 10.0713 26.2576C10.4828 26.445 10.9801 26.6837 11.2882 26.7508C11.5963 26.8178 12.2456 26.796 12.8442 26.861C13.4935 26.8391 13.9381 26.8706 14.0063 26.8528C14.2286 26.8685 15.7766 25.8023 16.155 26.1457L16.1725 26.2148C16.2583 26.2661 16.3266 26.2483 16.4124 26.2996C16.6016 26.4713 16.8941 26.7633 17.3056 26.9507C17.4596 26.9843 17.5279 26.9665 17.6819 27C18.109 26.9624 18.8772 26.8359 19.663 26.7785C19.936 26.7074 20.1582 26.7231 20.1582 26.7231C20.1582 26.7231 21.6616 26.6261 22.2602 26.6911C22.7906 26.7738 23.6778 26.5427 24.0872 26.436C24.4284 26.3471 26.0156 26.0073 26.85 25.5689L26.9865 25.5333C27.0548 25.5156 27.1054 25.4287 27.1737 25.4109C27.1737 25.4109 27.5696 25.8234 28.5385 25.0553C28.6575 24.9507 28.7939 24.9151 28.9304 24.8796C29.1352 24.8262 29.5446 24.7196 29.8858 24.6307C30.1588 24.5596 30.2777 24.4549 30.346 24.4371C30.346 24.4371 30.4142 24.4194 30.4824 24.4016L30.8412 24.3818C33.1655 24.3654 44 24.547 44 24.547L43.6477 23.8954L44 22.4689L43.2021 21.3989V0.0225004L11.9082 0C11.9082 0 11.8791 0.744121 12.3412 0.844679C12.7351 0.963017 12.7547 1.32619 12.5344 1.60454C12.3142 1.88289 12.0959 2.45534 12.2499 2.48886C12.4722 2.5046 12.7607 2.20847 12.8445 1.96567C12.9459 1.79196 13.2851 1.40897 13.406 1.59842C13.5952 1.7701 13.5114 2.01289 13.2405 2.3781C13.0377 2.72553 12.8857 2.98611 13.1431 3.14C13.3323 3.31168 13.4884 3.63929 13.2154 3.71041C12.9424 3.78153 12.7377 3.83487 13.0303 4.12692C13.3228 4.41897 13.2546 4.43675 13.1708 4.67955C13.0187 4.94012 12.7147 5.46127 12.7147 5.46127C12.7147 5.46127 12.5491 6.24095 13.0288 6.41058C13.0288 6.41058 13.3194 6.40854 13.3349 6.18353C13.368 6.02759 13.5707 5.68016 13.7444 6.07685C13.9004 6.40446 14.0429 7.25118 14.0429 7.25118C14.0429 7.25118 14.5422 7.78399 14.6983 8.1116C14.8544 8.43921 14.9969 9.28593 14.7922 9.33927C14.5874 9.39261 14.2598 8.9624 14.2071 8.75517C14.1544 8.54793 13.9632 8.08216 13.5537 8.18884C13.2125 8.27774 12.9436 8.93704 12.8598 9.17983C12.7253 9.50949 13.0354 9.87062 12.78 10.0108C12.5246 10.151 12.1347 10.6209 12.4624 11.0511C12.7725 11.4122 13.0144 11.7911 12.9131 11.9648C12.8117 12.1385 12.1468 12.3854 12.1995 12.5926C12.2698 12.869 12.5819 13.5242 12.4454 13.5597C12.3089 13.5953 11.4353 13.3073 11.4468 12.4941C11.4584 11.6809 11.934 11.2624 11.7955 11.0038C11.657 10.7453 11.5537 10.6249 11.5185 10.4868C11.4834 10.3486 12.0956 9.89452 12.0078 9.54912C11.9199 9.20373 11.9294 8.09644 11.5882 8.18534C11.2295 8.20516 10.9078 8.65723 10.826 9.19411C10.795 9.64414 10.8361 10.6646 10.6314 10.7179C10.4949 10.7535 9.94494 10.3075 10.2274 9.12911C10.5275 8.01978 11.0889 7.65253 11.0869 7.35844C11.1025 7.13342 11.0147 6.78803 10.9795 6.64988C10.964 6.87489 10.9153 7.25584 10.6755 7.17102C10.3498 7.0349 9.98497 6.17245 9.96741 6.10337C9.94985 6.03429 9.79378 5.70668 9.53837 5.84687C9.26541 5.91799 9.55997 6.50414 9.57753 6.57322C9.5951 6.64229 9.64779 6.84953 9.4255 6.83379C9.49374 6.81601 9.18363 6.45488 9.11337 6.17857C8.99243 5.98911 8.76813 5.67928 8.30799 5.87281C7.84786 6.06635 7.33504 6.05265 6.97626 6.07247C6.61748 6.09229 6.41276 6.14562 6.20803 6.19896C6.0033 6.2523 5.86682 6.28786 5.67764 6.11619C5.48846 5.94451 5.33239 5.6169 4.81957 5.6032C4.30674 5.5895 3.77837 5.80081 3.10948 5.4595C2.44059 5.11819 0.0711071 3.52589 0.0711071 3.52589L0.248766 4.51076C0.248766 4.51076 0.619633 6.2555 0.056129 6.32866C0.056129 6.32866 -0.230375 6.91888 0.491208 7.46743C1.14455 8.03375 1.50534 8.30803 1.54249 8.74028C1.52895 9.25938 1.82755 10.4337 1.82755 10.4337C1.82755 10.4337 1.7498 11.5588 1.73425 11.7838C1.7187 12.0088 1.53557 12.7194 1.7092 13.1161C1.81458 13.5306 1.93753 14.0141 1.92198 14.2391C1.82063 14.4129 1.20846 14.867 1.22804 15.2301C1.24762 15.5933 1.50907 16.3354 1.89895 15.8655C2.28882 15.3957 2.13276 15.0681 2.13276 15.0681C2.13276 15.0681 3.16042 15.3896 3.24623 15.4409C3.33204 15.4922 3.71039 15.8355 3.16445 15.9778C2.68676 16.1022 1.81717 16.4024 1.81717 16.4024C1.81717 16.4024 3.11982 16.9469 3.20764 17.2923C3.2779 17.5686 3.27992 17.8627 2.73599 18.299C2.19207 18.7354 2.36569 19.132 2.41839 19.3393C2.45352 19.4774 2.54335 20.1169 2.06566 20.2414C1.6562 20.3481 1.68529 19.6039 1.5799 19.1895C1.54276 18.7572 1.21508 18.327 1.23063 18.102C1.24618 17.877 1.6205 17.6321 1.482 17.3736C1.3435 17.1151 1.13676 16.8743 0.659062 16.9988C0.113122 17.141 -0.0389122 17.4016 0.0137809 17.6088C0.0664741 17.8161 0.7178 18.0883 0.891429 18.485C0.979251 18.8304 1.06909 19.4699 1.03597 19.6258C1.00286 19.7817 0.90755 20.8377 1.38726 21.0074C1.88454 21.2461 2.19062 21.019 2.78724 20.7899C3.36629 20.4918 4.05275 20.9021 4.39598 21.1073C4.7392 21.3125 5.86823 21.4603 6.33038 21.5609C6.72428 21.6792 8.17897 21.9631 8.3526 22.3598C8.52623 22.7565 8.60051 23.621 8.60051 23.621C8.60051 23.621 8.60051 23.621 8.58295 23.5519C8.61808 23.6901 8.45049 24.1756 8.82885 24.519Z" fill="#1B75BC"/>
</svg>
