<svg width="34" height="34" viewBox="0 0 34 34" fill="none" xmlns="http://www.w3.org/2000/svg">
<circle cx="17" cy="17" r="17" fill="#9AC6E9"/>
<path d="M23.6371 11.6316H10.3629C10.145 11.6316 9.94101 11.6785 9.75646 11.7558L16.9686 18.0679L18.585 16.7082C18.585 16.7082 18.5852 16.7081 18.5852 16.7081C18.5852 16.708 18.5853 16.7079 18.5853 16.7079L24.2438 11.7559C24.0592 11.6785 23.8551 11.6316 23.6371 11.6316Z" fill="white"/>
<path d="M24.911 12.3399L19.5861 17.0001L24.9108 21.6603C24.9991 21.4988 25.0527 21.3203 25.0527 21.1296V12.8705C25.0527 12.6799 24.9992 12.5014 24.911 12.3399Z" fill="white"/>
<path d="M9.08925 12.3397C9.00096 12.5012 8.94739 12.6798 8.94739 12.8705V21.1296C8.94739 21.3202 9.00089 21.4987 9.08913 21.6602L14.414 17L9.08925 12.3397Z" fill="white"/>
<path d="M18.9189 17.584L17.3022 18.9438C17.21 19.0245 17.0893 19.0648 16.9686 19.0648C16.8479 19.0648 16.7271 19.0245 16.635 18.9438L15.0812 17.584L9.75624 22.2442C9.94082 22.3215 10.1449 22.3684 10.3629 22.3684H23.6371C23.855 22.3684 24.059 22.3215 24.2436 22.2443L18.9189 17.584Z" fill="white"/>
</svg>
